<svg width="249" height="132" viewBox="0 0 249 132" fill="none" xmlns="http://www.w3.org/2000/svg">
<path d="M20.1601 64C23.4721 64 25.1521 62.752 25.1521 60.208V44.8479H15.2161V56.2719C15.2161 56.3199 15.1681 56.368 15.1201 56.368H12.8161C12.7681 56.368 12.7201 56.3199 12.7201 56.2719V42.8799H25.1521V35.2959H12.7201V33.3279H2.73609V35.2959H0.288086V42.8799H2.73609V60.208C2.73609 62.752 4.41609 64 7.72809 64H20.1601Z" fill="white"/>
<path d="M74.7758 73.552V65.92H50.1038C50.0558 65.92 50.0078 65.872 50.0078 65.824V37.216C50.0078 34.6239 48.3278 33.3279 45.0158 33.3279H37.5758V25.6479H27.5918V64H37.5758V41.0079H39.9278C39.9758 41.0079 40.0238 41.0559 40.0238 41.1039V69.76C40.0238 72.304 41.7038 73.552 45.0638 73.552H74.7758ZM64.7918 45.3759H62.3438V41.1039C62.3438 41.0559 62.3918 41.0079 62.4398 41.0079H64.6958C64.7438 41.0079 64.7918 41.0559 64.7918 41.1039V45.3759ZM69.7838 64C73.0958 64 74.7758 62.752 74.7758 60.208V54.4479H64.7918V56.2719C64.7918 56.3199 64.7438 56.368 64.6958 56.368H62.4398C62.3918 56.368 62.3438 56.3199 62.3438 56.2719V52.528H74.7758V37.216C74.7758 34.6239 73.0958 33.3279 69.7838 33.3279H57.3518C54.0398 33.3279 52.3598 34.6239 52.3598 37.216V60.208C52.3598 62.752 54.0398 64 57.3518 64H69.7838Z" fill="white"/>
<path d="M100.209 56.2719C100.209 56.3199 100.161 56.368 100.113 56.368H97.8571C97.8091 56.368 97.7611 56.3199 97.7611 56.2719V41.1039C97.7611 41.0559 97.8091 41.0079 97.8571 41.0079H100.113C100.161 41.0079 100.209 41.0559 100.209 41.1039V56.2719ZM105.201 64C108.513 64 110.193 62.752 110.193 60.208V37.216C110.193 34.6239 108.513 33.3279 105.201 33.3279H92.7691C89.4571 33.3279 87.7771 34.6239 87.7771 37.216V60.208C87.7771 62.752 89.4571 64 92.7691 64H105.201ZM117.537 73.552C120.849 73.552 122.529 72.304 122.529 69.76V50.56H131.169V42.8799H122.529V41.1039C122.529 41.0559 122.577 41.0079 122.625 41.0079H131.265V33.3279H117.537C114.225 33.3279 112.545 34.6239 112.545 37.216V65.824C112.545 65.872 112.497 65.92 112.449 65.92H87.7771V73.552H117.537Z" fill="#FEB948"/>
<path d="M143.184 64V50.56H151.824V42.8799H143.184V41.1039C143.184 41.0559 143.232 41.0079 143.28 41.0079H151.92V33.3279H138.192C134.88 33.3279 133.2 34.672 133.2 37.216V64H143.184Z" fill="#FEB948"/>
<path d="M166.209 45.3759H163.761V41.1039C163.761 41.0559 163.809 41.0079 163.857 41.0079H166.113C166.161 41.0079 166.209 41.0559 166.209 41.1039V45.3759ZM171.201 64C174.513 64 176.193 62.752 176.193 60.208V54.4479H166.209V56.2719C166.209 56.3199 166.161 56.368 166.113 56.368H163.857C163.809 56.368 163.761 56.3199 163.761 56.2719V52.528H176.193V37.216C176.193 34.6239 174.513 33.3279 171.201 33.3279H158.769C155.457 33.3279 153.777 34.6239 153.777 37.216V60.208C153.777 62.752 155.457 64 158.769 64H171.201Z" fill="#FEB948"/>
<path d="M200.992 64V51.1839C200.992 49.6959 200.176 48.8799 198.496 48.6399C200.128 48.448 200.944 47.6319 200.944 46.1439V37.216C200.944 34.6239 199.312 33.3279 196 33.3279H178.576V64H188.56V51.7119H190.912C190.96 51.7119 191.008 51.7599 191.008 51.8079V64H200.992ZM191.008 45.5199C191.008 45.5679 190.96 45.6159 190.912 45.6159H188.56V41.0079H190.912C190.96 41.0079 191.008 41.0559 191.008 41.1039V45.5199Z" fill="#FEB948"/>
<path d="M224.091 64V33.3279H214.107V64H224.091Z" fill="white"/>
<path d="M243.904 64C247.216 64 248.896 62.752 248.896 60.208V48.6399C248.896 46.0959 247.216 44.8479 243.904 44.8479H236.56C236.512 44.8479 236.464 44.8 236.464 44.7519V41.1039C236.464 41.0559 236.512 41.0079 236.56 41.0079H238.816C238.864 41.0079 238.912 41.0559 238.912 41.1039V42.8799H248.896V37.216C248.896 34.6239 247.216 33.3279 243.904 33.3279H231.472C228.16 33.3279 226.48 34.6239 226.48 37.216V48.6399C226.48 51.232 228.16 52.528 231.472 52.528H238.816C238.864 52.528 238.912 52.576 238.912 52.624V56.2719C238.912 56.3199 238.864 56.368 238.816 56.368H236.56C236.512 56.368 236.464 56.3199 236.464 56.2719V54.4479H226.48V60.208C226.48 62.752 228.16 64 231.472 64H243.904Z" fill="white"/>
<path d="M36.1441 131.552V123.92H23.7601C23.7121 123.92 23.6641 123.872 23.6641 123.824V109.184C23.6641 107.696 22.8481 106.88 21.1681 106.64C22.8001 106.448 23.6161 105.632 23.6161 104.144V95.2159C23.6161 92.6239 21.9841 91.3279 18.6721 91.3279H1.24809V122H11.2321V109.712H13.5841C13.6321 109.712 13.6801 109.76 13.6801 109.808V127.76C13.6801 130.304 15.3601 131.552 18.6721 131.552H36.1441ZM13.6801 103.52C13.6801 103.568 13.6321 103.616 13.5841 103.616H11.2321V99.0079H13.5841C13.6321 99.0079 13.6801 99.0559 13.6801 99.1039V103.52ZM36.0961 122V91.3279H26.1121V122H36.0961Z" fill="white"/>
<path d="M55.9355 131.552C59.2475 131.552 60.9275 130.304 60.9275 127.76V91.3279H43.5035C40.1915 91.3279 38.5115 92.6239 38.5115 95.2159V118.208C38.5115 120.752 40.1915 122 43.5035 122H50.9435V123.824C50.9435 123.872 50.8955 123.92 50.8475 123.92H38.5115V131.552H55.9355ZM50.9435 114.368H48.5915C48.5435 114.368 48.4955 114.32 48.4955 114.272V99.1039C48.4955 99.0559 48.5435 99.0079 48.5915 99.0079H50.9435V114.368Z" fill="white"/>
<path d="M112.172 131.552V123.92H85.9163C85.8683 123.92 85.8203 123.872 85.8203 123.824V95.2159C85.8203 92.6239 84.1403 91.3279 80.8283 91.3279H73.3883V83.6479H63.4043V122H73.3883V99.0079H75.7403C75.7883 99.0079 75.8363 99.0559 75.8363 99.1039V127.76C75.8363 130.304 77.5163 131.552 80.8763 131.552H112.172ZM107.18 122C110.492 122 112.172 120.752 112.172 118.208V102.848H102.236V114.272C102.236 114.32 102.188 114.368 102.14 114.368H99.8363C99.7883 114.368 99.7403 114.32 99.7403 114.272V100.88H112.172V93.2959H99.7403V91.3279H89.7563V93.2959H87.3083V100.88H89.7563V118.208C89.7563 120.752 91.4363 122 94.7483 122H107.18Z" fill="white"/>
<path d="M124.959 122V114.368H114.975V122H124.959ZM124.959 112.448V91.3279H114.975V112.448H124.959Z" fill="white"/>
<rect width="40" height="10" rx="3" fill="#FEB948"/>
</svg>
